<svg width="1em" height="1em" viewBox="0 0 13 10" fill="#ffffff" xmlns="http://www.w3.org/2000/svg"><path fill-rule="evenodd" clip-rule="evenodd" d="M0.683616 3.34767C0.966833 3.06852 1.41058 3.02521 1.74384 3.24419L4.84892 5.28428L11.2468 0.49236C11.5616 0.256548 12.0047 0.286191 12.2843 0.561764C12.5639 0.837337 12.594 1.27411 12.3548 1.58439L6.77224 8.82375C6.70207 8.92749 6.62168 9.02414 6.53224 9.1123C5.82037 9.81394 4.68878 9.84975 3.93408 9.21971L3.77319 9.07952C3.75044 9.05904 3.72815 9.03804 3.70636 9.01656C3.5095 8.82253 3.36114 8.59882 3.26127 8.36003L0.578633 4.39267C0.35646 4.06419 0.4004 3.62682 0.683616 3.34767Z" fill="#ffffff"></path></svg>