<svg width="1024" height="27" viewBox="0 0 1024 27" fill="none" xmlns="http://www.w3.org/2000/svg" preserveAspectRatio="xMidYMin meet" role="none"><path d="M1024 0H0V7H516L532 27H1024V0Z" fill="url(#paint0_linear_2339_34301)" role="none"></path><mask id="mask0_2339_34301" style="mask-type: alpha;" maskUnits="userSpaceOnUse" x="0" y="0" width="1024" height="27" role="none"><path d="M1024 0H0V7H516L532 27H1024V0Z" fill="url(#paint1_linear_2339_34301)" role="none"></path></mask><g mask="url(#mask0_2339_34301)" role="none"><rect x="215.977" y="72.4844" width="110.997" height="3" transform="rotate(-45 215.977 72.4844)" fill="url(#paint2_linear_2339_34301)" role="none"></rect><rect opacity="0.5" x="463.055" y="58.1562" width="110.997" height="25.9753" transform="rotate(-47 463.055 58.1562)" fill="url(#paint3_linear_2339_34301)" role="none"></rect><rect opacity="0.5" x="561.977" y="69.4844" width="110.997" height="3" transform="rotate(-45 561.977 69.4844)" fill="url(#paint4_linear_2339_34301)" role="none"></rect><path opacity="0.5" d="M423.336 72.0078L499.036 -9.17006L509.225 -7.40327L433.525 73.7746L423.336 72.0078Z" fill="url(#paint5_linear_2339_34301)" role="none"></path><rect opacity="0.15" x="210" y="123.273" width="179.995" height="4.38032" transform="rotate(-45 210 123.273)" fill="url(#paint6_linear_2339_34301)" role="none"></rect></g><defs role="none"><linearGradient id="paint0_linear_2339_34301" x1="222" y1="7.61902" x2="618.827" y2="41.0361" gradientUnits="userSpaceOnUse" role="none"><stop stop-color="#F2B13E" role="none"></stop><stop offset="1" stop-color="#FDD373" stop-opacity="0.63" role="none"></stop></linearGradient><linearGradient id="paint1_linear_2339_34301" x1="258.001" y1="15.2381" x2="619.473" y2="38.7377" gradientUnits="userSpaceOnUse" role="none"><stop stop-color="#F3A00C" role="none"></stop><stop offset="1" stop-color="#FFBB21" stop-opacity="0.76" role="none"></stop></linearGradient><linearGradient id="paint2_linear_2339_34301" x1="240.009" y1="75.3223" x2="295.171" y2="74.4282" gradientUnits="userSpaceOnUse" role="none"><stop stop-color="#DB910B" stop-opacity="0" role="none"></stop><stop offset="1" stop-color="#F09F0B" role="none"></stop></linearGradient><linearGradient id="paint3_linear_2339_34301" x1="526.703" y1="78.6898" x2="549.23" y2="69.5047" gradientUnits="userSpaceOnUse" role="none"><stop stop-color="#DE9611" stop-opacity="0" role="none"></stop><stop offset="1" stop-color="#F79F00" role="none"></stop></linearGradient><linearGradient id="paint4_linear_2339_34301" x1="586.009" y1="72.3223" x2="641.171" y2="71.4282" gradientUnits="userSpaceOnUse" role="none"><stop stop-color="#DE9611" stop-opacity="0" role="none"></stop><stop offset="1" stop-color="#F79F00" role="none"></stop></linearGradient><linearGradient id="paint5_linear_2339_34301" x1="449.796" y1="56.0878" x2="486.763" y2="15.1345" gradientUnits="userSpaceOnUse" role="none"><stop stop-color="#DE9611" stop-opacity="0" role="none"></stop><stop offset="1" stop-color="#F79F00" role="none"></stop></linearGradient><linearGradient id="paint6_linear_2339_34301" x1="248.971" y1="127.417" x2="314.65" y2="126.719" gradientUnits="userSpaceOnUse" role="none"><stop stop-color="#F79F00" role="none"></stop><stop offset="1" stop-color="#DE9611" stop-opacity="0" role="none"></stop></linearGradient></defs></svg>