<svg width="100" height="26" viewBox="0 0 100 26" fill="none" xmlns="http://www.w3.org/2000/svg" class="w-[100px] max-md:hidden"><g id="logo_horizontal"><g id="Group 14"><path id="Fill 1" fill-rule="evenodd" clip-rule="evenodd" d="M51.5505 20.1501H50.5769L50.3984 17.5929H50.3582C49.4061 19.599 47.5005 20.4442 45.456 20.4442C40.9891 20.4442 38.7656 16.9636 38.7656 13.1283C38.7656 9.29396 40.9891 5.8125 45.456 5.8125C48.4334 5.8125 50.8555 7.40551 51.372 10.4726H50.0221C49.8431 8.86099 48.1558 6.95308 45.456 6.95308C41.7037 6.95308 40.1168 10.0608 40.1168 13.1283C40.1168 16.1972 41.7037 19.304 45.456 19.304C48.5923 19.304 50.4189 17.1206 50.3582 14.1513H45.535V13.0107H51.5505V20.1501Z" fill="#E41E26"></path><path id="Fill 3" fill-rule="evenodd" clip-rule="evenodd" d="M60.4616 14.6036H60.4219C60.263 14.8982 59.7081 14.9968 59.3702 15.0561C57.2454 15.4293 54.606 15.4099 54.606 17.3956C54.606 18.6357 55.7179 19.403 56.8883 19.403C58.7944 19.403 60.4822 18.2027 60.4616 16.2161V14.6036ZM53.7915 13.1085C53.9103 10.7291 55.5985 9.70618 57.9407 9.70618C59.7468 9.70618 61.7122 10.2572 61.7122 12.9714V18.3598C61.7122 18.8317 61.951 19.1073 62.4465 19.1073C62.5862 19.1073 62.7442 19.0679 62.8438 19.029V20.0709C62.5666 20.1306 62.3675 20.1497 62.03 20.1497C60.7587 20.1497 60.5614 19.4416 60.5614 18.3802H60.5212C59.6477 19.6981 58.754 20.4442 56.7881 20.4442C54.9035 20.4442 53.355 19.5199 53.355 17.4749C53.355 14.6236 56.1534 14.525 58.8531 14.2106C59.8856 14.0921 60.4614 13.9541 60.4614 12.8329C60.4614 11.1616 59.2499 10.7486 57.7818 10.7486C56.2333 10.7486 55.082 11.4566 55.0419 13.1085H53.7915Z" fill="#E41E26"></path><path id="Fill 5" fill-rule="evenodd" clip-rule="evenodd" d="M64.2124 10.0007H65.3632V12.3809H65.4034C66.0386 10.7486 67.4282 9.78489 69.274 9.86361V11.1028C67.0117 10.9843 65.4627 12.637 65.4627 14.7408V20.1501H64.2124V10.0007Z" fill="#E41E26"></path><path id="Fill 7" fill-rule="evenodd" clip-rule="evenodd" d="M77.4719 14.3675C77.4121 12.499 76.2417 10.7485 74.216 10.7485C72.172 10.7485 71.0408 12.5189 70.8413 14.3675H77.4719ZM70.8412 15.4098C70.8613 17.2186 71.8139 19.4029 74.2159 19.4029C76.0429 19.4029 77.0357 18.3397 77.4321 16.806H78.6824C78.1467 19.1079 76.7969 20.444 74.2159 20.444C70.9604 20.444 69.5918 17.9665 69.5918 15.0759C69.5918 12.4007 70.9604 9.70642 74.2159 9.70642C77.5115 9.70642 78.8212 12.5585 78.7221 15.4098H70.8412Z" fill="#E41E26"></path><path id="Fill 9" fill-rule="evenodd" clip-rule="evenodd" d="M80.3892 10.0008H81.6395V11.7517H81.6792C82.1354 10.5324 83.5049 9.70667 84.9548 9.70667C87.8331 9.70667 88.7057 11.2011 88.7057 13.6198V20.1502H87.4559V13.817C87.4559 12.0666 86.8805 10.7486 84.8552 10.7486C82.8697 10.7486 81.6792 12.2435 81.6395 14.2296V20.1502H80.3892V10.0008Z" fill="#E41E26"></path><path id="Fill 11" fill-rule="evenodd" clip-rule="evenodd" d="M97.6182 14.6036H97.5781C97.4205 14.8982 96.8638 14.9968 96.5264 15.0561C94.402 15.4293 91.7612 15.4099 91.7612 17.3956C91.7612 18.6357 92.8741 19.403 94.0445 19.403C95.9514 19.403 97.6379 18.2027 97.6182 16.2161V14.6036ZM90.9486 13.1085C91.0678 10.7291 92.7547 9.70618 95.0973 9.70618C96.903 9.70618 98.8688 10.2572 98.8688 12.9714V18.3598C98.8688 18.8317 99.1068 19.1073 99.6022 19.1073C99.7415 19.1073 99.9 19.0679 100 19.029V20.0709C99.7223 20.1306 99.5241 20.1497 99.1862 20.1497C97.9163 20.1497 97.7172 19.4416 97.7172 18.3802H97.6774C96.8048 19.6981 95.9115 20.4442 93.9457 20.4442C92.0592 20.4442 90.5107 19.5199 90.5107 17.4749C90.5107 14.6236 93.31 14.525 96.0102 14.2106C97.0427 14.0921 97.6181 13.9541 97.6181 12.8329C97.6181 11.1616 96.407 10.7486 94.9375 10.7486C93.3895 10.7486 92.2387 11.4566 92.1985 13.1085H90.9486Z" fill="#E41E26"></path></g><path id="Clip 19" fill-rule="evenodd" clip-rule="evenodd" d="M19.6346 0.0230808L19.5414 0.10481L19.3098 0.128647L19.2851 0.210755L19.0433 0.222106C19.0433 0.222106 16.0312 1.45144 12.4408 2.13138C12.5333 2.0262 12.6141 1.90928 12.6141 1.90928C12.6141 1.90928 11.2822 2.23733 10.9581 2.55327C10.865 2.42462 10.7725 2.33041 10.7725 2.33041L10.6909 2.43597L10.7725 2.56462L10.7257 2.68305L10.5877 2.74057H10.4945L10.46 2.64749L10.0896 2.63538L10.0544 2.8344L9.94997 2.9044L9.67229 3.09208L9.56825 3.17381L9.26663 3.15072L9.209 2.9744C9.209 2.9744 8.21243 3.83104 7.34422 4.09855C8.32844 3.04478 10.3904 1.52182 10.3904 1.52182L10.3788 1.39355L10.2168 1.3822C10.2168 1.3822 6.44008 3.91239 5.89596 4.40428C6.26644 4.01758 6.6141 3.73569 6.6141 3.73569C6.6141 3.73569 5.00417 4.56774 4.71415 5.35286C4.65652 5.24768 4.63331 5.2 4.63331 5.2C4.63331 5.2 4.969 4.96503 5.13066 4.40428C5.46672 3.78299 5.98877 3.17381 5.98877 3.17381L5.13066 4.09855L4.85336 4.15796L4.48287 4.75503L4.54088 4.80233L4.05476 5.33962L4.15804 5.51594L4.11201 5.71535L3.99638 5.59881L3.86914 5.39865L2.30487 7.08582L2.22404 6.93333L1.0774 7.97651L1.68028 7.81154L0 9.4866C0 9.4866 2.32919 10.5411 6.18598 8.71321C9.96643 6.92274 14.178 8.18764 14.178 8.18764C14.178 8.18764 5.45549 9.41661 3.50951 16.4082C1.68964 22.9465 8.82654 25.9659 12.336 26L16.9001 25.9659C16.9001 25.9659 16.3096 25.8948 15.7187 25.6837C17.259 25.5789 17.8963 25.3681 17.8963 25.3681C17.8963 25.3681 17.8267 25.3802 17.3634 25.2277C20.0736 24.981 20.7928 24.5361 20.7928 24.5361L20.514 24.4661V24.407C20.514 24.407 22.5416 24.2092 26.1087 22.4274C24.1635 23.2485 21.9616 23.4119 21.9616 23.4119L22.2752 23.0483C22.2752 23.0483 22.4836 23.1066 22.6105 23.0608C23.2478 22.7214 23.2594 22.2284 23.2594 22.2284C23.2594 22.2284 23.271 22.6154 23.5494 22.3112C23.8731 22.0176 23.6183 21.7728 23.6183 21.7728L23.4334 21.6903C23.4334 21.6903 23.793 21.3044 24.1635 21.0108C23.9551 20.9173 23.979 20.5892 23.979 20.5892L24.1983 20.5658L24.2556 20.4258L24.0819 20.3554L23.9551 20.2377L24.1519 20.1798C24.1519 20.1798 25.4026 18.3058 27.3257 16.6307C26.5264 17.0405 26.2944 17.1695 26.2944 17.1695C26.2944 17.1695 26.651 16.5509 29.4113 14.8856C31.2682 13.7649 31.6698 12.7891 31.6698 12.7891C31.6698 12.7891 30.3061 14.8584 28.0899 14.8047C25.7154 14.7453 23.9551 15.0741 23.9551 15.0741C23.9551 15.0741 25.0433 14.8618 25.6578 14.2416C25.6578 14.2416 23.5427 14.9904 22.2864 14.1364C19.425 12.1916 14.7573 13.0464 14.7573 13.0464C14.7573 13.0464 10.359 13.6143 9.4515 17.0526C8.80333 19.5124 11.5842 20.1912 11.5842 20.1912C11.5842 20.1912 13.3607 20.6165 14.016 18.9032C14.41 17.8725 13.553 17.2622 13.553 17.2622C13.553 17.2622 12.11 15.8251 13.1825 14.6162C14.3872 13.2579 18.0468 14.1474 18.0468 14.1474C18.0468 14.1474 23.0049 15.3896 19.7615 21.2923C17.6542 25.0397 13.0665 24.6659 13.0665 24.6659C13.0665 24.6659 8.40965 24.8751 7.83034 19.9343C7.66905 18.4586 7.87712 17.6618 7.87712 17.6618L8.09679 17.4707L8.00174 17.4007V17.3046C8.00174 17.3046 8.01034 17.2073 8.19222 17.2073C8.37409 17.2073 8.28765 16.997 8.28765 16.997L8.08781 16.9788C8.08781 16.9788 8.07958 16.7597 8.27904 16.5932C8.18286 16.566 8.19222 16.5134 8.19222 16.5134C8.19222 16.5134 8.28765 16.286 8.48748 16.3734C8.5047 16.6984 8.70566 16.4699 8.70566 16.4699C8.70566 16.4699 8.49684 16.5055 8.62707 16.0306C8.84375 15.5569 9.53832 15.1437 9.53832 15.1437C9.53832 15.1437 9.43428 15.1338 9.33923 15.0287C9.97317 14.819 10.2254 14.2825 10.2254 14.2825L10.121 14.2556C10.121 14.2556 10.0431 14.3707 9.87774 14.3442C9.91255 14.2121 9.96531 14.1504 9.96531 14.1504L9.87774 14.1334V13.9401L9.65171 13.9227C9.65171 13.9227 9.48667 13.8175 9.66069 13.6328C10.1128 13.545 10.0776 13.0793 10.0776 13.0793L10.2422 13.1319L10.3556 12.9559L10.4252 12.7622L10.5117 12.6657L10.7823 12.7807L10.9376 12.8598L11.3282 13.2026L11.0083 12.6305L11.0764 12.4822L11.1202 12.3403L10.9028 12.3157L10.8945 12.2094L11.1202 12.122L11.1378 12.0516L11.2074 12.0247L11.2418 11.8144L11.5801 11.7886L11.7373 11.4371C11.7373 11.4371 13.5298 8.8865 17.7683 9.13509C20.9661 9.32277 21.7804 11.2805 25.599 11.0096C27.9163 10.8453 28.5409 11.1038 28.5409 11.1038C28.5409 11.1038 27.3598 10.26 26.1087 10.1892C27.3845 10.1192 28.3796 9.97849 28.3796 9.97849L28.2168 9.88995L28.0615 9.80293L27.9395 9.74958L27.783 9.85552L27.5742 9.8733L27.2442 9.73255L27.0885 9.68071L26.9313 9.69774L26.7756 9.88995L26.55 9.85552L25.9063 9.73255L26.6012 9.69774L26.8097 9.55623L26.9665 9.46958H27.1745L27.1929 9.59104L27.5402 9.62698L27.6962 9.73255L27.9215 9.62698L28.1479 9.69774L28.3219 9.62698L28.4956 9.5392L28.6168 9.50439L28.8084 9.55623L29.1213 9.27623L29.2781 9.25882L29.3806 9.43477L29.4686 9.50439L29.3806 9.64439H29.5554L29.6078 9.41661L29.573 9.32882L29.8147 9.25882H30.0767L30.1107 9.43477L30.1979 9.32882L30.2159 9.20547L30.4412 9.04769L31.3094 8.57321L31.6054 8.48467L31.745 8.37948L32.3872 8.30948C32.3872 8.30948 33.2733 8.02911 34.0038 7.07976C34.0038 7.07976 31.1361 8.95953 26.8624 7.94057C23.8836 7.23036 23.4046 6.48231 23.4046 6.48231L23.6302 6.39453L23.2833 6.28896L23.1086 6.20156L22.7957 6.23675L22.5528 6.04415H22.0843L22.0147 5.9208L21.545 5.88486L21.4934 5.7967L22.4312 5.78005L22.6397 5.97302L22.8661 5.93745L23.1434 6.07783L23.2654 6.09713L23.4218 6.20156H23.7343L23.8391 6.34231L23.7515 6.44712L23.9083 6.62382L24.1175 6.67566V6.44712L23.9959 6.30675L24.1175 6.11453H23.9427L23.8563 6.04415L23.8218 5.7267L23.6126 5.67448C23.6126 5.67448 20.416 3.70656 17.7743 4.83071C17.7743 4.83071 17.9307 4.63774 18.2211 4.53293C18.3027 4.52157 18.2444 4.43871 18.2444 4.43871L18.3132 4.40428L18.6844 4.4266L18.6493 4.34525L19.1825 4.3339L19.1474 4.21585L19.4486 4.21131L19.1358 4.12201L19.0048 4.29455L18.8981 4.17498L18.7424 4.12201L18.7664 4.30742L18.58 4.26314L18.3491 4.3339L18.1863 4.36871L18.0007 4.3339L17.9895 4.22833L17.7811 4.36871L17.665 4.34525L17.5026 4.32179L17.4798 4.01758L17.7683 3.84164C17.7683 3.84164 15.4178 3.74742 13.2746 4.59082C11.1314 5.43421 10.9117 5.82053 8.52528 6.32453C10.3672 5.7267 11.4443 4.98925 12.0004 4.63774C13.5411 3.74742 16.7733 1.9683 17.8735 1.31145C17.8963 1.18204 17.9307 1.18204 17.9307 1.18204L18.0584 1.26377L18.2324 1.06588L18.4176 1.01896V0.948963L18.7073 0.937234L18.7196 0.83091L18.8577 0.843397L18.8925 0.73783L19.1358 0.668209L18.8461 0.631885L18.8345 0.550535L19.1358 0.527076L19.1709 0.433617L19.321 0.515346L19.5755 0.234214L19.785 0.199403L19.9011 0L19.6346 0.0230808ZM20.1443 3.93247L19.8079 4.07625L19.6694 4.08684L19.6006 4.06603L19.5631 4.09592L19.516 4.20906L19.7615 4.20452L19.7963 4.14549L20.9545 4.05241L22.5416 3.95895L21.1169 3.87685L21.0009 3.98317L20.8044 3.96993L20.7797 3.93474L20.6596 3.89274L20.4332 4.0176H20.2944L20.2596 3.80571L20.1443 3.93247ZM19.4486 4.21131L19.5077 4.22798L19.516 4.20906L19.4486 4.21131Z" fill="#E41E26"></path></g></svg>